STARTFONT 2.1
COMMENT
COMMENT Converted from OpenType font "Font 90 Icons.ttf" by "otf2bdf 3.0".
COMMENT
FONT -FreeType-Font 90 Icons-Medium-R-Normal--19-140-100-100-P-72-ISO10646-1
SIZE 14 100 100
FONTBOUNDINGBOX 20 20 0 -4
STARTPROPERTIES 19
FOUNDRY "FreeType"
FAMILY_NAME "Font 90 Icons"
WEIGHT_NAME "Medium"
SLANT "R"
SETWIDTH_NAME "Normal"
ADD_STYLE_NAME ""
PIXEL_SIZE 19
POINT_SIZE 140
RESOLUTION_X 100
RESOLUTION_Y 100
SPACING "P"
AVERAGE_WIDTH 72
CHARSET_REGISTRY "ISO10646"
CHARSET_ENCODING "1"
FONT_ASCENT 15
FONT_DESCENT 3
COPYRIGHT "Typeface © (el-harrak.blogspot.com). <darrati10@gmail.com>. All Rights Reserved"
_OTF_FONTFILE "Font 90 Icons.ttf"
_OTF_PSNAME "Font 90 Icons"
ENDPROPERTIES
CHARS 242
STARTCHAR 0000
ENCODING 0
SWIDTH 0 0
DWIDTH 0 0
BBX 0 0 0 0
BITMAP
ENDCHAR
STARTCHAR 001D
ENCODING 29
SWIDTH 0 0
DWIDTH 0 0
BBX 0 0 0 0
BITMAP
ENDCHAR
STARTCHAR 0020
ENCODING 32
SWIDTH 257 0
DWIDTH 5 0
BBX 0 0 0 0
BITMAP
ENDCHAR
STARTCHAR 0021
ENCODING 33
SWIDTH 977 0
DWIDTH 19 0
BBX 18 18 0 -3
BITMAP
03F800
0FF600
1FF900
3FB880
7F3C80
7F3840
FFF840
FFF040
FFE040
FE0040
FC0040
F80040
78C040
78E080
380080
1C0100
0E0600
03F800
ENDCHAR
STARTCHAR 0022
ENCODING 34
SWIDTH 977 0
DWIDTH 19 0
BBX 18 14 0 -1
BITMAP
03F000
021000
7FFFC0
FFFFC0
FFFFC0
FFFFC0
FFFFC0
FFFFC0
FFFFC0
FFFFC0
FFFFC0
FFFFC0
FFFFC0
FFFFC0
ENDCHAR
STARTCHAR 0023
ENCODING 35
SWIDTH 977 0
DWIDTH 19 0
BBX 17 20 1 -4
BITMAP
070000
DFE000
FFFF00
DFFF00
DFFF00
DFFF00
7FFF00
7FFF00
6FFF80
6E1F80
680780
600000
300000
300000
300000
300000
300000
180000
180000
100000
ENDCHAR
STARTCHAR 0024
ENCODING 36
SWIDTH 977 0
DWIDTH 19 0
BBX 18 18 0 -3
BITMAP
380000
7C0000
FE0000
FF0000
7F8000
3FC000
1FF000
0FC000
0F8000
074000
022000
001000
000800
000400
000200
000100
000080
000040
ENDCHAR
STARTCHAR 0025
ENCODING 37
SWIDTH 977 0
DWIDTH 19 0
BBX 17 20 1 -4
BITMAP
018000
01C000
03E000
0FF800
DFFF00
F98F80
F88F80
789F00
7FBB00
E3C300
E3C300
7FBB00
789F00
F18F80
F98F80
5FFD00
0FF800
03E000
01C000
008000
ENDCHAR
STARTCHAR 0026
ENCODING 38
SWIDTH 977 0
DWIDTH 19 0
BBX 18 18 0 -3
BITMAP
03F800
0C0E00
11E300
27F980
6FFC80
5FFE40
DDF740
9EEF40
9F5F40
9FBF40
9FFF40
5FFF40
4FFE40
6FFC80
27F980
18E300
0E0C00
03F000
ENDCHAR
STARTCHAR 0027
ENCODING 39
SWIDTH 977 0
DWIDTH 19 0
BBX 18 18 0 -3
BITMAP
0FC000
1FF000
3FF800
793C00
731C00
E31C00
EFEC00
EFCC00
E31C00
731C00
783C00
3FFE00
1FFF00
07DF80
001FC0
000FC0
0007C0
0003C0
ENDCHAR
STARTCHAR 0028
ENCODING 40
SWIDTH 977 0
DWIDTH 19 0
BBX 18 18 0 -3
BITMAP
0FE000
1FF000
3CF800
703C00
701C00
E00C00
EFEC00
EFCC00
E01C00
701C00
783C00
3FFE00
1FFF00
07DF80
000FC0
0007C0
0003C0
0001C0
ENDCHAR
STARTCHAR 0029
ENCODING 41
SWIDTH 977 0
DWIDTH 19 0
BBX 18 14 0 -1
BITMAP
7FFFC0
C000C0
E001C0
B00340
880640
840C40
821840
833840
85EC40
880640
900340
A001C0
C000C0
FFFFC0
ENDCHAR
STARTCHAR 002A
ENCODING 42
SWIDTH 977 0
DWIDTH 19 0
BBX 16 20 1 -4
BITMAP
0180
0180
0180
0180
0180
1998
1FF8
0FF0
7FFF
BFFF
DFFF
EFFF
F7FF
FBFF
FDFF
F67F
EFFF
DFFF
BFFF
7FFF
ENDCHAR
STARTCHAR 002B
ENCODING 43
SWIDTH 977 0
DWIDTH 19 0
BBX 18 18 0 -3
BITMAP
FFFFC0
FFFFC0
C3F0C0
C7F8C0
C3F0C0
D1F2C0
FBFBC0
FFFFC0
FFFFC0
FFFFC0
FFFFC0
FBFBC0
D1F2C0
C3F8C0
C7F8C0
C3F8C0
FFFFC0
FFFFC0
ENDCHAR
STARTCHAR 002C
ENCODING 44
SWIDTH 977 0
DWIDTH 19 0
BBX 18 18 0 -3
BITMAP
001F00
003F80
007FC0
00FCC0
01FDC0
03FFC0
07FFC0
0FFFC0
19FF80
34FF00
FA7E00
7D3C00
3E9800
1F7000
0FE000
07C000
038000
010000
ENDCHAR
STARTCHAR 002D
ENCODING 45
SWIDTH 977 0
DWIDTH 19 0
BBX 18 18 0 -3
BITMAP
03F800
0C0E00
180300
300980
681880
4638C0
C07840
83F840
83F840
83F840
83F840
407840
4038C0
601C80
300B80
180300
0E0C00
03F000
ENDCHAR
STARTCHAR 002E
ENCODING 46
SWIDTH 977 0
DWIDTH 19 0
BBX 16 20 1 -4
BITMAP
3FFE
2001
2001
2001
2001
2001
2001
2001
2001
3FFF
0000
3FFE
3FC3
3FFF
3FFF
0080
0080
07E0
FFFF
07E0
ENDCHAR
STARTCHAR 002F
ENCODING 47
SWIDTH 977 0
DWIDTH 19 0
BBX 18 18 0 -3
BITMAP
21F180
33F100
93FB40
D3FB40
5BFA40
5BFAC0
5BFAC0
5BFAC0
5BFAC0
5BFAC0
5BFA40
D3FB40
93F140
21E100
20E080
00E000
00E000
00E000
ENDCHAR
STARTCHAR 0030
ENCODING 48
SWIDTH 977 0
DWIDTH 19 0
BBX 18 18 0 -3
BITMAP
03F800
0FFE00
1FFF00
3BF380
71F180
61E1C0
E0E0C0
C1E0C0
C110C0
FF3FC0
FFFFC0
FF1FC0
7E1FC0
7E0F80
3C0F80
1E0F00
0FFE00
03F800
ENDCHAR
STARTCHAR 0031
ENCODING 49
SWIDTH 977 0
DWIDTH 19 0
BBX 18 20 0 -4
BITMAP
00E000
01E000
03E000
0DEC00
1DEF00
3DE700
79E380
71E1C0
61E1C0
E1E1C0
E1E1C0
E001C0
6001C0
7001C0
700380
380780
3E0F00
1FFE00
07FC00
01E000
ENDCHAR
STARTCHAR 0032
ENCODING 50
SWIDTH 977 0
DWIDTH 19 0
BBX 17 20 1 -4
BITMAP
018000
01C000
01C000
01C000
C18300
E18780
F08F80
789F00
1FB800
03C000
03C000
1FB800
789F00
F18F80
E18780
C1C100
01C000
01C000
01C000
018000
ENDCHAR
STARTCHAR 0033
ENCODING 51
SWIDTH 977 0
DWIDTH 19 0
BBX 18 18 0 -3
BITMAP
004000
004000
00C000
00E000
01E000
01F000
1FFF00
FFFFC0
3FFF80
1FFF00
0FFE00
07FC00
07FC00
0FFC00
0FFC00
0F1E00
0C0600
100200
ENDCHAR
STARTCHAR 0034
ENCODING 52
SWIDTH 977 0
DWIDTH 19 0
BBX 18 14 0 -1
BITMAP
7FFF80
BFFFC0
DFFF40
EFFEC0
F7FDC0
FBFBC0
FDF7C0
FCEFC0
FF5BC0
FFFDC0
FFFEC0
FFFF40
FFFFC0
7FFF80
ENDCHAR
STARTCHAR 0035
ENCODING 53
SWIDTH 977 0
DWIDTH 19 0
BBX 18 15 0 -2
BITMAP
004C00
01AE00
02DE00
0DE600
13FB00
6FFC80
9FFF40
1FFF00
1F1F00
1F1F00
1F1F00
1F1F00
1F1F00
1F1F00
1F1E00
ENDCHAR
STARTCHAR 0036
ENCODING 54
SWIDTH 977 0
DWIDTH 19 0
BBX 18 20 0 -4
BITMAP
100600
380F00
380E00
100400
7E1F80
FF1F80
FF3F80
FF3FC0
FF2F40
FF3F40
FF7FC0
BE1F80
3C3F80
3C0F40
3C0F00
3C0F00
3C0F00
3C0F00
3C0F00
240A00
ENDCHAR
STARTCHAR 0037
ENCODING 55
SWIDTH 977 0
DWIDTH 19 0
BBX 18 14 0 -1
BITMAP
0FC000
1CF000
387800
787800
7CFC00
C78400
878400
878400
CFCC00
7C7C00
787800
387840
1CEFC0
07C700
ENDCHAR
STARTCHAR 0038
ENCODING 56
SWIDTH 977 0
DWIDTH 19 0
BBX 14 20 2 -4
BITMAP
7FFC
FFFC
C004
C004
C004
C004
FFFC
CC44
CC44
FFFC
FFFC
CC44
CC44
CC44
FFFC
CC44
CC44
CC44
FFFC
7FFC
ENDCHAR
STARTCHAR 0039
ENCODING 57
SWIDTH 977 0
DWIDTH 19 0
BBX 18 18 0 -3
BITMAP
800000
600000
200000
37FFC0
13FFC0
1BFF80
0BFF80
0BFF00
0BFF00
080000
0C0000
0C0000
0FFF80
000000
0E0300
0F0780
0E0780
060300
ENDCHAR
STARTCHAR 003A
ENCODING 58
SWIDTH 977 0
DWIDTH 19 0
BBX 18 18 0 -3
BITMAP
001F00
007F80
00FCC0
00F8C0
00FCC0
00FFC0
00FFC0
01FFC0
037F80
07BF00
0FC000
1FA000
3F8000
7F0000
F80000
F80000
F00000
700000
ENDCHAR
STARTCHAR 003B
ENCODING 59
SWIDTH 977 0
DWIDTH 19 0
BBX 18 18 0 -3
BITMAP
004000
004000
004000
004000
004000
004000
004000
004000
FFFFC0
FFFFC0
004000
004000
004000
004000
004000
004000
004000
004000
ENDCHAR
STARTCHAR 003C
ENCODING 60
SWIDTH 977 0
DWIDTH 19 0
BBX 18 14 0 -1
BITMAP
00C000
00E000
01E000
01B000
031800
061800
060C00
0C0C00
0C0600
180300
300300
300180
600180
E000C0
ENDCHAR
STARTCHAR 003D
ENCODING 61
SWIDTH 977 0
DWIDTH 19 0
BBX 18 18 0 -3
BITMAP
03F800
0C0600
100100
2FE080
463080
461840
861840
861840
877040
86C040
866040
863040
461840
461880
298480
100300
0C0400
03F800
ENDCHAR
STARTCHAR 003E
ENCODING 62
SWIDTH 977 0
DWIDTH 19 0
BBX 18 18 0 -3
BITMAP
03F800
0C0600
100100
21F480
420C80
440440
8C0440
8C0040
9C0040
9C0040
8C0040
8C0040
460440
430880
20F080
100300
0C0400
03F800
ENDCHAR
STARTCHAR 003F
ENCODING 63
SWIDTH 977 0
DWIDTH 19 0
BBX 18 18 0 -3
BITMAP
03F800
0FFC00
1C0F00
380380
700180
6001C0
E000C0
C000C0
C000C0
C000C0
C000C0
6000C0
6001C0
700180
380380
1C0F00
0FFC00
03F800
ENDCHAR
STARTCHAR 0040
ENCODING 64
SWIDTH 977 0
DWIDTH 19 0
BBX 18 18 0 -3
BITMAP
004000
00C000
00E000
01E000
01F000
03F000
03F800
07F800
07FC00
0FFC00
0FFE00
1FFE00
1FFF00
3FFF00
3FFF80
7FFF80
7FFFC0
FFFFC0
ENDCHAR
STARTCHAR 0041
ENCODING 65
SWIDTH 977 0
DWIDTH 19 0
BBX 18 18 0 -3
BITMAP
820000
C10000
E1C000
F9E000
FDF000
FEFC00
FFFE00
FFDF00
FFFFC0
FFEFC0
FFDF00
FF7E00
FEFC00
FDF000
F1E000
E1C000
C10000
820000
ENDCHAR
STARTCHAR 0042
ENCODING 66
SWIDTH 977 0
DWIDTH 19 0
BBX 16 20 1 -4
BITMAP
800F
C00F
F00F
FC0F
FE0F
FF8F
FFEF
FFFF
FFFF
FFFF
FFFF
FFFF
FFFF
FFCF
FF8F
FE0F
FC0F
F00F
C00F
800F
ENDCHAR
STARTCHAR 0043
ENCODING 67
SWIDTH 977 0
DWIDTH 19 0
BBX 14 20 2 -4
BITMAP
FCFC
FCFC
FCFC
FCFC
FCFC
FCFC
FCFC
FCFC
FCFC
FCFC
FCFC
FCFC
FCFC
FCFC
FCFC
FCFC
FCFC
FCFC
FCFC
FCFC
ENDCHAR
STARTCHAR 0044
ENCODING 68
SWIDTH 977 0
DWIDTH 19 0
BBX 16 20 1 -4
BITMAP
8000
C000
F000
FC00
FE00
FF80
FFE0
FFF0
FFFC
FFFF
FFFE
FFFC
FFF0
FFC0
FF80
FE00
FC00
F000
C000
8000
ENDCHAR
STARTCHAR 0045
ENCODING 69
SWIDTH 977 0
DWIDTH 19 0
BBX 18 18 0 -3
BITMAP
03F800
0FFC00
1FFF00
3FFF80
7FFF80
7E1FC0
7C0FC0
FC07C0
F807C0
F807C0
FC07C0
7C0FC0
7E1FC0
7FFF80
3FFF80
1FFF00
0FFC00
03F000
ENDCHAR
STARTCHAR 0046
ENCODING 70
SWIDTH 977 0
DWIDTH 19 0
BBX 18 18 0 -3
BITMAP
FFFFC0
FFFFC0
FFFFC0
FFFFC0
FFFFC0
FFFFC0
FFFFC0
FFFFC0
FFFFC0
FFFFC0
FFFFC0
FFFFC0
FFFFC0
FFFFC0
FFFFC0
FFFFC0
FFFFC0
FFFFC0
ENDCHAR
STARTCHAR 0047
ENCODING 71
SWIDTH 977 0
DWIDTH 19 0
BBX 16 20 1 -4
BITMAP
F001
F003
F007
F01F
F07F
F0FF
F3FF
FFFF
FFFF
FFFF
FFFF
FFFF
FFFF
F3FF
F0FF
F07F
F01F
F007
F003
F001
ENDCHAR
STARTCHAR 0048
ENCODING 72
SWIDTH 977 0
DWIDTH 19 0
BBX 18 18 0 -3
BITMAP
001040
003040
0071C0
01F3C0
03F7C0
07DFC0
1FBFC0
3F7FC0
FDFFC0
7FFFC0
3F7FC0
0FBFC0
07FFC0
03F7C0
00F3C0
0071C0
003040
001040
ENDCHAR
STARTCHAR 0049
ENCODING 73
SWIDTH 977 0
DWIDTH 19 0
BBX 18 18 0 -3
BITMAP
C80000
CC0000
CD0000
CC8000
CCE000
CCF800
CCFC00
CCFF00
CCFFC0
CCFF80
CCFF00
CCFC00
CCF800
CCE000
CC8000
CD0000
CC0000
D00000
ENDCHAR
STARTCHAR 004A
ENCODING 74
SWIDTH 977 0
DWIDTH 19 0
BBX 18 18 0 -3
BITMAP
004000
00C000
01E000
01F000
03F800
07F800
0FFC00
0FFE00
1FFF00
3FFF00
7FFF80
FFFFC0
000000
FFFFC0
FFFFC0
FFFFC0
FFFFC0
FFFFC0
ENDCHAR
STARTCHAR 004B
ENCODING 75
SWIDTH 977 0
DWIDTH 19 0
BBX 18 18 0 -3
BITMAP
000300
000300
000700
000600
000E00
3FFC00
7FFC00
FFFC00
07FE00
007E00
00FF00
00CF80
01C780
0383C0
0F81C0
1780C0
018080
008000
ENDCHAR
STARTCHAR 004C
ENCODING 76
SWIDTH 977 0
DWIDTH 19 0
BBX 16 20 1 -4
BITMAP
0008
0008
07CC
1FFC
3FFE
607E
807E
007F
00F0
0000
0000
0F80
FF00
7E01
7F06
3FFC
3FF8
19E0
1000
1000
ENDCHAR
STARTCHAR 004D
ENCODING 77
SWIDTH 977 0
DWIDTH 19 0
BBX 18 16 0 -2
BITMAP
03C000
0FF000
3EF800
381C00
700E00
600600
E03FC0
C01F80
C00F80
E00700
600200
700000
381000
3FF000
0FF000
03C000
ENDCHAR
STARTCHAR 004E
ENCODING 78
SWIDTH 977 0
DWIDTH 19 0
BBX 18 13 0 0
BITMAP
000080
0003C0
0007C0
000FC0
601F80
F01F00
F83E00
7C7C00
3EF800
1FF000
0FE000
07C000
038000
ENDCHAR
STARTCHAR 004F
ENCODING 79
SWIDTH 977 0
DWIDTH 19 0
BBX 18 18 0 -3
BITMAP
7C0000
FF8000
FFE000
0FF000
01F800
707C00
FE3E00
FF8F00
7FCF00
07E780
01E380
00F3C0
7873C0
7C79C0
FC79C0
FC39C0
7C39C0
7839C0
ENDCHAR
STARTCHAR 0050
ENCODING 80
SWIDTH 977 0
DWIDTH 19 0
BBX 17 20 1 -4
BITMAP
01C000
0FF000
1FF800
3E3C00
381E00
700E00
700E00
700E00
700E00
FFFF80
FFFF80
FF7F80
FE3F80
FE7F80
FF7F80
FE7F80
FE7F80
FFFF80
FFFF80
FFFF80
ENDCHAR
STARTCHAR 0051
ENCODING 81
SWIDTH 977 0
DWIDTH 19 0
BBX 18 18 0 -3
BITMAP
0FFE00
0FFE00
0FFE00
0FFE00
0FFE00
0FFE00
0FFE00
004000
004000
0FFE00
080200
080200
FF1FC0
FF1FC0
FF1FC0
FF1FC0
FF1FC0
FF1FC0
ENDCHAR
STARTCHAR 0052
ENCODING 82
SWIDTH 977 0
DWIDTH 19 0
BBX 18 10 0 1
BITMAP
018000
0FCE00
3FEF80
7FEFC0
E180C0
C100C0
E000C0
E001C0
7FFFC0
3FFF80
ENDCHAR
STARTCHAR 0053
ENCODING 83
SWIDTH 977 0
DWIDTH 19 0
BBX 18 16 0 -2
BITMAP
000800
001C00
003E00
FF7F00
FEFF80
FFFFC0
E19CC0
FEFFC0
DFFFC0
DFFFC0
FFFFC0
FFFF80
BFEF80
BFFF80
7FFF00
3FFF00
ENDCHAR
STARTCHAR 0054
ENCODING 84
SWIDTH 977 0
DWIDTH 19 0
BBX 18 18 0 -3
BITMAP
03F800
0FFC00
1FFF00
3C0780
7C0380
7E01C0
E701C0
E381C0
E1C0C0
E0E0C0
E071C0
E039C0
701DC0
780F80
3C0F00
1FFF00
0FFC00
03F000
ENDCHAR
STARTCHAR 0055
ENCODING 85
SWIDTH 977 0
DWIDTH 19 0
BBX 18 16 0 -2
BITMAP
004000
00C000
01C000
03C000
07C000
FFC000
FFC000
FFCFC0
FFCFC0
FFC000
FFC000
07C000
03C000
01C000
00C000
004000
ENDCHAR
STARTCHAR 0056
ENCODING 86
SWIDTH 977 0
DWIDTH 19 0
BBX 18 16 0 -2
BITMAP
004000
00C000
01C000
03C000
07C000
FFC300
FFC300
FFCFC0
FFCFC0
FFC300
FFC300
07C000
03C000
01C000
00C000
004000
ENDCHAR
STARTCHAR 0057
ENCODING 87
SWIDTH 977 0
DWIDTH 19 0
BBX 18 18 0 -3
BITMAP
1C0F00
7F1F80
7F3FC0
FFFFC0
FFFFC0
FFFFC0
7FFFC0
7FFF80
3FFF00
1FFF00
0FFE00
07FC00
03F800
01F000
00E000
004000
004000
004000
ENDCHAR
STARTCHAR 0058
ENCODING 88
SWIDTH 977 0
DWIDTH 19 0
BBX 15 20 2 -4
BITMAP
1800
1800
1800
1800
1800
1800
1B00
1B34
9B36
DFFE
DFFE
DFFE
DFFE
FFFE
FFFE
7FFE
7FFE
3FFE
1FFE
1FFC
ENDCHAR
STARTCHAR 0059
ENCODING 89
SWIDTH 977 0
DWIDTH 19 0
BBX 14 20 2 -4
BITMAP
0100
0300
1B60
1B60
1B6C
1B6C
1B6C
1B6C
1B6C
5B6C
DFFC
DFFC
DFFC
FFFC
FFFC
7FFC
3FFC
3FFC
1FFC
0FF8
ENDCHAR
STARTCHAR 005A
ENCODING 90
SWIDTH 977 0
DWIDTH 19 0
BBX 18 18 0 -3
BITMAP
002100
006180
00E080
01E4C0
03E6C0
07E6C0
FFE6C0
FFE640
FFE640
FFE640
FFE640
FFE6C0
FFE6C0
03E4C0
01E4C0
00E480
006180
002100
ENDCHAR
STARTCHAR 005B
ENCODING 91
SWIDTH 977 0
DWIDTH 19 0
BBX 18 18 0 -3
BITMAP
800000
E00000
F80000
FE0000
FF8000
FFE000
FFF800
FFFE00
FFFFC0
FFFF80
FFFE00
FFF800
FFE000
FF8000
FE0000
F80000
E00000
800000
ENDCHAR
STARTCHAR 005C
ENCODING 92
SWIDTH 977 0
DWIDTH 19 0
BBX 18 18 0 -3
BITMAP
FFFFC0
7FFFC0
7FFF80
3FFF80
3FFF00
1FFF00
1FFE00
0FFE00
0FFC00
07FC00
07F800
03F800
03F000
01F000
01E000
00E000
00C000
004000
ENDCHAR
STARTCHAR 005D
ENCODING 93
SWIDTH 977 0
DWIDTH 19 0
BBX 18 18 0 -3
BITMAP
000040
0001C0
0007C0
001FC0
007FC0
01FFC0
07FFC0
1FFFC0
7FFFC0
FFFFC0
1FFFC0
07FFC0
01FFC0
007FC0
001FC0
0007C0
0001C0
000040
ENDCHAR
STARTCHAR 005E
ENCODING 94
SWIDTH 977 0
DWIDTH 19 0
BBX 18 6 0 3
BITMAP
200100
200080
FFFFC0
7FFFC0
200080
200100
ENDCHAR
STARTCHAR 005F
ENCODING 95
SWIDTH 977 0
DWIDTH 19 0
BBX 7 20 6 -4
BITMAP
10
38
7C
B2
30
30
30
30
30
30
30
30
30
30
30
30
B2
7C
30
10
ENDCHAR
STARTCHAR 0060
ENCODING 96
SWIDTH 977 0
DWIDTH 19 0
BBX 7 20 6 -4
BITMAP
30
30
30
30
30
30
30
30
30
30
30
30
30
30
30
30
B2
7C
38
10
ENDCHAR
STARTCHAR 0061
ENCODING 97
SWIDTH 977 0
DWIDTH 19 0
BBX 18 11 0 1
BITMAP
000100
018100
0FF300
1FFF00
3FFF80
3FFF80
603F80
403FC0
803FC0
007FC0
00FFC0
ENDCHAR
STARTCHAR 0062
ENCODING 98
SWIDTH 977 0
DWIDTH 19 0
BBX 18 11 0 1
BITMAP
100000
100000
31FC00
3FFE00
3FFF00
3FFF80
7F8180
7F0040
7F8040
7FC000
FFE000
ENDCHAR
STARTCHAR 0063
ENCODING 99
SWIDTH 977 0
DWIDTH 19 0
BBX 18 20 0 -4
BITMAP
01E000
01F000
01F000
01F000
01F000
01F000
01F000
01F000
01F000
61F0C0
F9F3C0
FFFFC0
7FFF80
3FFF00
1FFE00
0FFC00
07F800
03F000
01E000
00C000
ENDCHAR
STARTCHAR 0064
ENCODING 100
SWIDTH 977 0
DWIDTH 19 0
BBX 18 19 0 -3
BITMAP
000100
000380
6007C0
F00FC0
F01FC0
F83F80
F87F00
F8FE00
FDFC00
FFF800
FFF000
FFE000
FFC000
FFE000
FFFC00
FFFF00
FFFF80
FFFF80
7FFF00
ENDCHAR
STARTCHAR 0065
ENCODING 101
SWIDTH 977 0
DWIDTH 19 0
BBX 18 19 0 -3
BITMAP
100000
380000
7C0180
FE01C0
7F03C0
3F83C0
1FC7C0
0FE7C0
07F7C0
03FFC0
01FFC0
00FFC0
007FC0
00FFC0
07FFC0
1FFFC0
3FFFC0
3FFFC0
1FFF80
ENDCHAR
STARTCHAR 0066
ENCODING 102
SWIDTH 977 0
DWIDTH 19 0
BBX 18 17 0 -2
BITMAP
00C000
01C000
03C000
078000
0F8000
1F0000
3F0000
7FFFC0
FFFFC0
FFFFC0
7FFFC0
3F0000
1F8000
0F8000
07C000
03C000
01C000
ENDCHAR
STARTCHAR 0067
ENCODING 103
SWIDTH 977 0
DWIDTH 19 0
BBX 18 17 0 -3
BITMAP
004000
00F000
007800
007C00
007E00
003F00
003F80
FFFFC0
FFFFC0
FFFFC0
FFFFC0
003F80
003F00
007E00
007C00
007800
00F000
ENDCHAR
STARTCHAR 0068
ENCODING 104
SWIDTH 977 0
DWIDTH 19 0
BBX 18 20 0 -4
BITMAP
00C000
01E000
03F000
07F800
0FFC00
1FFE00
3FFF00
7FFF80
FFFFC0
F9F7C0
61F0C0
01F000
01F000
01F000
01F000
01F000
01F000
01F000
01F000
00E000
ENDCHAR
STARTCHAR 0069
ENCODING 105
SWIDTH 977 0
DWIDTH 19 0
BBX 18 18 0 -3
BITMAP
7FFF00
FFFF80
FFFF80
FFFE00
FFF800
FFC000
FFC000
FFE000
FFF000
FFF800
FDFC00
F8FE00
F87F00
F83F80
F01FC0
700FC0
0007C0
000380
ENDCHAR
STARTCHAR 006A
ENCODING 106
SWIDTH 977 0
DWIDTH 19 0
BBX 18 18 0 -3
BITMAP
3FFFC0
3FFFC0
3FFFC0
1FFFC0
03FFC0
007FC0
00FFC0
01FFC0
03FFC0
07FFC0
0FF7C0
1FE7C0
3FC3C0
7F83C0
FF03C0
FE01C0
7C0000
380000
ENDCHAR
STARTCHAR 006B
ENCODING 107
SWIDTH 977 0
DWIDTH 19 0
BBX 18 16 0 -2
BITMAP
002000
003000
003800
003C00
07FE00
1FFF00
3FFF80
7FFFC0
7FFFC0
787F00
E07C00
C07800
C06000
808000
800000
800000
ENDCHAR
STARTCHAR 006C
ENCODING 108
SWIDTH 1028 0
DWIDTH 20 0
BBX 20 18 0 -3
BITMAP
008000
008000
018000
038000
07A000
0FFF00
1FFF80
3FFFC0
7FFFE0
FFFFE0
3FC1F0
0FC070
03E030
00E030
006010
001010
000010
000010
ENDCHAR
STARTCHAR 006D
ENCODING 109
SWIDTH 977 0
DWIDTH 19 0
BBX 16 20 1 -4
BITMAP
07E0
07E0
07E0
07E0
07E0
07E0
07E0
07E0
07E0
07E0
07E0
FFFF
3FFE
1FFC
1FF8
0FF0
07E0
03C0
0180
0080
ENDCHAR
STARTCHAR 006E
ENCODING 110
SWIDTH 977 0
DWIDTH 19 0
BBX 18 16 0 -2
BITMAP
008000
010000
030000
070000
0F0000
1FFFC0
3FFFC0
FFFFC0
7FFFC0
3FFFC0
1FFFC0
0F0000
070000
030000
010000
008000
ENDCHAR
STARTCHAR 006F
ENCODING 111
SWIDTH 977 0
DWIDTH 19 0
BBX 18 16 0 -2
BITMAP
002000
002000
003000
003C00
003E00
FFFF00
FFFF80
FFFFC0
FFFFC0
FFFF80
FFFF00
003E00
003800
003000
002000
002000
ENDCHAR
STARTCHAR 0070
ENCODING 112
SWIDTH 977 0
DWIDTH 19 0
BBX 16 20 1 -4
BITMAP
0080
0180
03C0
07E0
0FF0
1FF8
1FFC
3FFE
FFFF
07E0
07E0
07E0
07E0
07E0
07E0
07E0
07E0
07E0
07E0
07E0
ENDCHAR
STARTCHAR 0071
ENCODING 113
SWIDTH 977 0
DWIDTH 19 0
BBX 17 20 1 -4
BITMAP
001000
001000
003800
003800
007C00
E0FC00
E0FE00
E1FF00
E1FF00
E23880
E03800
E03800
E03800
E03800
E03800
F07000
7DF000
3FE000
1FC000
070000
ENDCHAR
STARTCHAR 0072
ENCODING 114
SWIDTH 977 0
DWIDTH 19 0
BBX 18 16 0 -2
BITMAP
008000
038000
078000
1F8000
7FFE00
FFFF80
1FFF80
0F81C0
0381C0
0081C0
0001C0
0001C0
0003C0
07FF80
07FF00
07FC00
ENDCHAR
STARTCHAR 0073
ENCODING 115
SWIDTH 977 0
DWIDTH 19 0
BBX 18 14 0 -1
BITMAP
07F800
1FFE00
3FFF80
7FFFC0
FFFFC0
FFFFC0
FFFFC0
FFFFC0
7FFFC0
3FFF80
1FFE00
07F800
018000
070000
ENDCHAR
STARTCHAR 0074
ENCODING 116
SWIDTH 977 0
DWIDTH 19 0
BBX 18 16 0 -2
BITMAP
7FFFC0
FFFFC0
FFFFC0
FFFFC0
FFFFC0
FFFFC0
FFFFC0
FFFFC0
FFFFC0
FFFFC0
FFFFC0
FFFFC0
00C000
018000
010000
020000
ENDCHAR
STARTCHAR 0075
ENCODING 117
SWIDTH 977 0
DWIDTH 19 0
BBX 18 14 0 -1
BITMAP
07F800
1FFF00
3FFF80
7FFFC0
FFFFC0
FFFFC0
FFFFC0
FFFFC0
7FFFC0
3FFF80
1FFE00
03F800
003000
001C00
ENDCHAR
STARTCHAR 0076
ENCODING 118
SWIDTH 977 0
DWIDTH 19 0
BBX 18 16 0 -2
BITMAP
7FFFC0
FFFFC0
FFFFC0
FFFFC0
FFFFC0
FFFFC0
FFFFC0
FFFFC0
FFFFC0
FFFFC0
FFFFC0
FFFFC0
00E000
002000
001000
000800
ENDCHAR
STARTCHAR 0077
ENCODING 119
SWIDTH 977 0
DWIDTH 19 0
BBX 18 18 0 -3
BITMAP
00E000
01E000
19E700
3FFF00
3FFF00
1FFE00
1F1E00
7E0FC0
FC0FC0
FC0FC0
7E0FC0
1F1E00
1FFE00
3FFF00
3FFF00
19E700
01E000
00E000
ENDCHAR
STARTCHAR 0078
ENCODING 120
SWIDTH 977 0
DWIDTH 19 0
BBX 18 16 0 -2
BITMAP
080000
380000
BE0000
E63000
673300
FC7F00
3DFE00
11F7C0
00C3C0
01C380
03E380
03FFC0
007FC0
00FE00
006E00
000400
ENDCHAR
STARTCHAR 0079
ENCODING 121
SWIDTH 977 0
DWIDTH 19 0
BBX 18 16 0 -2
BITMAP
07C300
0FF7C0
1E0E00
3F0FC0
778F80
F3DE00
60FD00
007000
01F800
03FC00
079E00
0F0F00
1E0780
7C03C0
7801C0
300080
ENDCHAR
STARTCHAR 007A
ENCODING 122
SWIDTH 977 0
DWIDTH 19 0
BBX 18 18 0 -3
BITMAP
002000
002000
006000
00E000
00C000
00C000
00C000
01C1C0
7D9F80
6FFF00
C7F000
FD8000
7BC000
07C000
064000
06C000
07C000
038000
ENDCHAR
STARTCHAR 007B
ENCODING 123
SWIDTH 977 0
DWIDTH 19 0
BBX 18 18 0 -3
BITMAP
000F00
000600
000700
000580
0000C0
0000C0
000040
000040
C00040
C00040
C000C0
4000C0
600080
300180
380300
1E0E00
07FC00
00C000
ENDCHAR
STARTCHAR 007C
ENCODING 124
SWIDTH 977 0
DWIDTH 19 0
BBX 18 18 0 -3
BITMAP
1C0000
1C0000
3C0000
340000
600000
400000
C00000
C00000
C00040
C00040
C00040
4000C0
600080
300180
380300
1E0E00
07FC00
00E000
ENDCHAR
STARTCHAR 007D
ENCODING 125
SWIDTH 462 0
DWIDTH 9 0
BBX 0 0 0 0
BITMAP
ENDCHAR
STARTCHAR 007E
ENCODING 126
SWIDTH 462 0
DWIDTH 9 0
BBX 0 0 0 0
BITMAP
ENDCHAR
STARTCHAR 00A0
ENCODING 160
SWIDTH 257 0
DWIDTH 5 0
BBX 0 0 0 0
BITMAP
ENDCHAR
STARTCHAR 00A1
ENCODING 161
SWIDTH 308 0
DWIDTH 6 0
BBX 0 0 0 0
BITMAP
ENDCHAR
STARTCHAR 00A2
ENCODING 162
SWIDTH 565 0
DWIDTH 11 0
BBX 0 0 0 0
BITMAP
ENDCHAR
STARTCHAR 00A3
ENCODING 163
SWIDTH 462 0
DWIDTH 9 0
BBX 0 0 0 0
BITMAP
ENDCHAR
STARTCHAR 00A4
ENCODING 164
SWIDTH 462 0
DWIDTH 9 0
BBX 0 0 0 0
BITMAP
ENDCHAR
STARTCHAR 00A5
ENCODING 165
SWIDTH 617 0
DWIDTH 12 0
BBX 0 0 0 0
BITMAP
ENDCHAR
STARTCHAR 00A6
ENCODING 166
SWIDTH 462 0
DWIDTH 9 0
BBX 0 0 0 0
BITMAP
ENDCHAR
STARTCHAR 00A7
ENCODING 167
SWIDTH 462 0
DWIDTH 9 0
BBX 0 0 0 0
BITMAP
ENDCHAR
STARTCHAR 00A8
ENCODING 168
SWIDTH 514 0
DWIDTH 10 0
BBX 0 0 0 0
BITMAP
ENDCHAR
STARTCHAR 00A9
ENCODING 169
SWIDTH 822 0
DWIDTH 16 0
BBX 0 0 0 0
BITMAP
ENDCHAR
STARTCHAR 00AA
ENCODING 170
SWIDTH 308 0
DWIDTH 6 0
BBX 0 0 0 0
BITMAP
ENDCHAR
STARTCHAR 00AB
ENCODING 171
SWIDTH 462 0
DWIDTH 9 0
BBX 0 0 0 0
BITMAP
ENDCHAR
STARTCHAR 00AC
ENCODING 172
SWIDTH 462 0
DWIDTH 9 0
BBX 0 0 0 0
BITMAP
ENDCHAR
STARTCHAR 00AD
ENCODING 173
SWIDTH 977 0
DWIDTH 19 0
BBX 18 18 0 -3
BITMAP
03F800
0C0E00
180300
300980
681880
4638C0
C07840
83F840
83F840
83F840
83F840
407840
4038C0
601C80
300B80
180300
0E0C00
03F000
ENDCHAR
STARTCHAR 00AE
ENCODING 174
SWIDTH 822 0
DWIDTH 16 0
BBX 0 0 0 0
BITMAP
ENDCHAR
STARTCHAR 00AF
ENCODING 175
SWIDTH 308 0
DWIDTH 6 0
BBX 0 0 0 0
BITMAP
ENDCHAR
STARTCHAR 00B0
ENCODING 176
SWIDTH 308 0
DWIDTH 6 0
BBX 0 0 0 0
BITMAP
ENDCHAR
STARTCHAR 00B1
ENCODING 177
SWIDTH 462 0
DWIDTH 9 0
BBX 0 0 0 0
BITMAP
ENDCHAR
STARTCHAR 00B2
ENCODING 178
SWIDTH 462 0
DWIDTH 9 0
BBX 0 0 0 0
BITMAP
ENDCHAR
STARTCHAR 00B3
ENCODING 179
SWIDTH 462 0
DWIDTH 9 0
BBX 0 0 0 0
BITMAP
ENDCHAR
STARTCHAR 00B4
ENCODING 180
SWIDTH 514 0
DWIDTH 10 0
BBX 0 0 0 0
BITMAP
ENDCHAR
STARTCHAR 00B5
ENCODING 181
SWIDTH 565 0
DWIDTH 11 0
BBX 0 0 0 0
BITMAP
ENDCHAR
STARTCHAR 00B6
ENCODING 182
SWIDTH 514 0
DWIDTH 10 0
BBX 0 0 0 0
BITMAP
ENDCHAR
STARTCHAR 00B7
ENCODING 183
SWIDTH 257 0
DWIDTH 5 0
BBX 0 0 0 0
BITMAP
ENDCHAR
STARTCHAR 00B8
ENCODING 184
SWIDTH 514 0
DWIDTH 10 0
BBX 0 0 0 0
BITMAP
ENDCHAR
STARTCHAR 00B9
ENCODING 185
SWIDTH 462 0
DWIDTH 9 0
BBX 0 0 0 0
BITMAP
ENDCHAR
STARTCHAR 00BA
ENCODING 186
SWIDTH 360 0
DWIDTH 7 0
BBX 0 0 0 0
BITMAP
ENDCHAR
STARTCHAR 00BB
ENCODING 187
SWIDTH 462 0
DWIDTH 9 0
BBX 0 0 0 0
BITMAP
ENDCHAR
STARTCHAR 00BC
ENCODING 188
SWIDTH 822 0
DWIDTH 16 0
BBX 0 0 0 0
BITMAP
ENDCHAR
STARTCHAR 00BD
ENCODING 189
SWIDTH 925 0
DWIDTH 18 0
BBX 0 0 0 0
BITMAP
ENDCHAR
STARTCHAR 00BE
ENCODING 190
SWIDTH 822 0
DWIDTH 16 0
BBX 0 0 0 0
BITMAP
ENDCHAR
STARTCHAR 00BF
ENCODING 191
SWIDTH 360 0
DWIDTH 7 0
BBX 0 0 0 0
BITMAP
ENDCHAR
STARTCHAR 00C0
ENCODING 192
SWIDTH 720 0
DWIDTH 14 0
BBX 0 0 0 0
BITMAP
ENDCHAR
STARTCHAR 00C1
ENCODING 193
SWIDTH 720 0
DWIDTH 14 0
BBX 0 0 0 0
BITMAP
ENDCHAR
STARTCHAR 00C2
ENCODING 194
SWIDTH 720 0
DWIDTH 14 0
BBX 0 0 0 0
BITMAP
ENDCHAR
STARTCHAR 00C3
ENCODING 195
SWIDTH 720 0
DWIDTH 14 0
BBX 0 0 0 0
BITMAP
ENDCHAR
STARTCHAR 00C4
ENCODING 196
SWIDTH 720 0
DWIDTH 14 0
BBX 0 0 0 0
BITMAP
ENDCHAR
STARTCHAR 00C5
ENCODING 197
SWIDTH 720 0
DWIDTH 14 0
BBX 0 0 0 0
BITMAP
ENDCHAR
STARTCHAR 00C6
ENCODING 198
SWIDTH 1028 0
DWIDTH 20 0
BBX 0 0 0 0
BITMAP
ENDCHAR
STARTCHAR 00C7
ENCODING 199
SWIDTH 668 0
DWIDTH 13 0
BBX 0 0 0 0
BITMAP
ENDCHAR
STARTCHAR 00C8
ENCODING 200
SWIDTH 565 0
DWIDTH 11 0
BBX 0 0 0 0
BITMAP
ENDCHAR
STARTCHAR 00C9
ENCODING 201
SWIDTH 565 0
DWIDTH 11 0
BBX 0 0 0 0
BITMAP
ENDCHAR
STARTCHAR 00CA
ENCODING 202
SWIDTH 565 0
DWIDTH 11 0
BBX 0 0 0 0
BITMAP
ENDCHAR
STARTCHAR 00CB
ENCODING 203
SWIDTH 565 0
DWIDTH 11 0
BBX 0 0 0 0
BITMAP
ENDCHAR
STARTCHAR 00CC
ENCODING 204
SWIDTH 308 0
DWIDTH 6 0
BBX 0 0 0 0
BITMAP
ENDCHAR
STARTCHAR 00CD
ENCODING 205
SWIDTH 308 0
DWIDTH 6 0
BBX 0 0 0 0
BITMAP
ENDCHAR
STARTCHAR 00CE
ENCODING 206
SWIDTH 308 0
DWIDTH 6 0
BBX 0 0 0 0
BITMAP
ENDCHAR
STARTCHAR 00CF
ENCODING 207
SWIDTH 308 0
DWIDTH 6 0
BBX 0 0 0 0
BITMAP
ENDCHAR
STARTCHAR 00D0
ENCODING 208
SWIDTH 720 0
DWIDTH 14 0
BBX 0 0 0 0
BITMAP
ENDCHAR
STARTCHAR 00D1
ENCODING 209
SWIDTH 720 0
DWIDTH 14 0
BBX 0 0 0 0
BITMAP
ENDCHAR
STARTCHAR 00D2
ENCODING 210
SWIDTH 771 0
DWIDTH 15 0
BBX 0 0 0 0
BITMAP
ENDCHAR
STARTCHAR 00D3
ENCODING 211
SWIDTH 771 0
DWIDTH 15 0
BBX 0 0 0 0
BITMAP
ENDCHAR
STARTCHAR 00D4
ENCODING 212
SWIDTH 771 0
DWIDTH 15 0
BBX 0 0 0 0
BITMAP
ENDCHAR
STARTCHAR 00D5
ENCODING 213
SWIDTH 771 0
DWIDTH 15 0
BBX 0 0 0 0
BITMAP
ENDCHAR
STARTCHAR 00D6
ENCODING 214
SWIDTH 771 0
DWIDTH 15 0
BBX 0 0 0 0
BITMAP
ENDCHAR
STARTCHAR 00D7
ENCODING 215
SWIDTH 462 0
DWIDTH 9 0
BBX 0 0 0 0
BITMAP
ENDCHAR
STARTCHAR 00D8
ENCODING 216
SWIDTH 771 0
DWIDTH 15 0
BBX 0 0 0 0
BITMAP
ENDCHAR
STARTCHAR 00D9
ENCODING 217
SWIDTH 720 0
DWIDTH 14 0
BBX 0 0 0 0
BITMAP
ENDCHAR
STARTCHAR 00DA
ENCODING 218
SWIDTH 720 0
DWIDTH 14 0
BBX 0 0 0 0
BITMAP
ENDCHAR
STARTCHAR 00DB
ENCODING 219
SWIDTH 720 0
DWIDTH 14 0
BBX 0 0 0 0
BITMAP
ENDCHAR
STARTCHAR 00DC
ENCODING 220
SWIDTH 720 0
DWIDTH 14 0
BBX 0 0 0 0
BITMAP
ENDCHAR
STARTCHAR 00DD
ENCODING 221
SWIDTH 565 0
DWIDTH 11 0
BBX 0 0 0 0
BITMAP
ENDCHAR
STARTCHAR 00DE
ENCODING 222
SWIDTH 514 0
DWIDTH 10 0
BBX 0 0 0 0
BITMAP
ENDCHAR
STARTCHAR 00DF
ENCODING 223
SWIDTH 617 0
DWIDTH 12 0
BBX 0 0 0 0
BITMAP
ENDCHAR
STARTCHAR 00E0
ENCODING 224
SWIDTH 462 0
DWIDTH 9 0
BBX 0 0 0 0
BITMAP
ENDCHAR
STARTCHAR 00E1
ENCODING 225
SWIDTH 462 0
DWIDTH 9 0
BBX 0 0 0 0
BITMAP
ENDCHAR
STARTCHAR 00E2
ENCODING 226
SWIDTH 462 0
DWIDTH 9 0
BBX 0 0 0 0
BITMAP
ENDCHAR
STARTCHAR 00E3
ENCODING 227
SWIDTH 462 0
DWIDTH 9 0
BBX 0 0 0 0
BITMAP
ENDCHAR
STARTCHAR 00E4
ENCODING 228
SWIDTH 462 0
DWIDTH 9 0
BBX 0 0 0 0
BITMAP
ENDCHAR
STARTCHAR 00E5
ENCODING 229
SWIDTH 462 0
DWIDTH 9 0
BBX 0 0 0 0
BITMAP
ENDCHAR
STARTCHAR 00E6
ENCODING 230
SWIDTH 668 0
DWIDTH 13 0
BBX 0 0 0 0
BITMAP
ENDCHAR
STARTCHAR 00E7
ENCODING 231
SWIDTH 411 0
DWIDTH 8 0
BBX 0 0 0 0
BITMAP
ENDCHAR
STARTCHAR 00E8
ENCODING 232
SWIDTH 411 0
DWIDTH 8 0
BBX 0 0 0 0
BITMAP
ENDCHAR
STARTCHAR 00E9
ENCODING 233
SWIDTH 411 0
DWIDTH 8 0
BBX 0 0 0 0
BITMAP
ENDCHAR
STARTCHAR 00EA
ENCODING 234
SWIDTH 411 0
DWIDTH 8 0
BBX 0 0 0 0
BITMAP
ENDCHAR
STARTCHAR 00EB
ENCODING 235
SWIDTH 411 0
DWIDTH 8 0
BBX 0 0 0 0
BITMAP
ENDCHAR
STARTCHAR 00EC
ENCODING 236
SWIDTH 257 0
DWIDTH 5 0
BBX 0 0 0 0
BITMAP
ENDCHAR
STARTCHAR 00ED
ENCODING 237
SWIDTH 257 0
DWIDTH 5 0
BBX 0 0 0 0
BITMAP
ENDCHAR
STARTCHAR 00EE
ENCODING 238
SWIDTH 257 0
DWIDTH 5 0
BBX 0 0 0 0
BITMAP
ENDCHAR
STARTCHAR 00EF
ENCODING 239
SWIDTH 257 0
DWIDTH 5 0
BBX 0 0 0 0
BITMAP
ENDCHAR
STARTCHAR 00F0
ENCODING 240
SWIDTH 565 0
DWIDTH 11 0
BBX 0 0 0 0
BITMAP
ENDCHAR
STARTCHAR 00F1
ENCODING 241
SWIDTH 514 0
DWIDTH 10 0
BBX 0 0 0 0
BITMAP
ENDCHAR
STARTCHAR 00F2
ENCODING 242
SWIDTH 462 0
DWIDTH 9 0
BBX 0 0 0 0
BITMAP
ENDCHAR
STARTCHAR 00F3
ENCODING 243
SWIDTH 462 0
DWIDTH 9 0
BBX 0 0 0 0
BITMAP
ENDCHAR
STARTCHAR 00F4
ENCODING 244
SWIDTH 462 0
DWIDTH 9 0
BBX 0 0 0 0
BITMAP
ENDCHAR
STARTCHAR 00F5
ENCODING 245
SWIDTH 462 0
DWIDTH 9 0
BBX 0 0 0 0
BITMAP
ENDCHAR
STARTCHAR 00F6
ENCODING 246
SWIDTH 462 0
DWIDTH 9 0
BBX 0 0 0 0
BITMAP
ENDCHAR
STARTCHAR 00F7
ENCODING 247
SWIDTH 462 0
DWIDTH 9 0
BBX 0 0 0 0
BITMAP
ENDCHAR
STARTCHAR 00F8
ENCODING 248
SWIDTH 462 0
DWIDTH 9 0
BBX 0 0 0 0
BITMAP
ENDCHAR
STARTCHAR 00F9
ENCODING 249
SWIDTH 514 0
DWIDTH 10 0
BBX 0 0 0 0
BITMAP
ENDCHAR
STARTCHAR 00FA
ENCODING 250
SWIDTH 514 0
DWIDTH 10 0
BBX 0 0 0 0
BITMAP
ENDCHAR
STARTCHAR 00FB
ENCODING 251
SWIDTH 514 0
DWIDTH 10 0
BBX 0 0 0 0
BITMAP
ENDCHAR
STARTCHAR 00FC
ENCODING 252
SWIDTH 514 0
DWIDTH 10 0
BBX 0 0 0 0
BITMAP
ENDCHAR
STARTCHAR 00FD
ENCODING 253
SWIDTH 411 0
DWIDTH 8 0
BBX 0 0 0 0
BITMAP
ENDCHAR
STARTCHAR 00FE
ENCODING 254
SWIDTH 462 0
DWIDTH 9 0
BBX 0 0 0 0
BITMAP
ENDCHAR
STARTCHAR 00FF
ENCODING 255
SWIDTH 411 0
DWIDTH 8 0
BBX 0 0 0 0
BITMAP
ENDCHAR
STARTCHAR 0131
ENCODING 305
SWIDTH 257 0
DWIDTH 5 0
BBX 0 0 0 0
BITMAP
ENDCHAR
STARTCHAR 02C6
ENCODING 710
SWIDTH 514 0
DWIDTH 10 0
BBX 0 0 0 0
BITMAP
ENDCHAR
STARTCHAR 02C7
ENCODING 711
SWIDTH 514 0
DWIDTH 10 0
BBX 0 0 0 0
BITMAP
ENDCHAR
STARTCHAR 02C9
ENCODING 713
SWIDTH 514 0
DWIDTH 10 0
BBX 0 0 0 0
BITMAP
ENDCHAR
STARTCHAR 02D8
ENCODING 728
SWIDTH 514 0
DWIDTH 10 0
BBX 0 0 0 0
BITMAP
ENDCHAR
STARTCHAR 02D9
ENCODING 729
SWIDTH 514 0
DWIDTH 10 0
BBX 0 0 0 0
BITMAP
ENDCHAR
STARTCHAR 02DA
ENCODING 730
SWIDTH 514 0
DWIDTH 10 0
BBX 0 0 0 0
BITMAP
ENDCHAR
STARTCHAR 02DB
ENCODING 731
SWIDTH 514 0
DWIDTH 10 0
BBX 0 0 0 0
BITMAP
ENDCHAR
STARTCHAR 02DC
ENCODING 732
SWIDTH 514 0
DWIDTH 10 0
BBX 0 0 0 0
BITMAP
ENDCHAR
STARTCHAR 02DD
ENCODING 733
SWIDTH 514 0
DWIDTH 10 0
BBX 0 0 0 0
BITMAP
ENDCHAR
STARTCHAR 037E
ENCODING 894
SWIDTH 977 0
DWIDTH 19 0
BBX 18 18 0 -3
BITMAP
004000
004000
004000
004000
004000
004000
004000
004000
FFFFC0
FFFFC0
004000
004000
004000
004000
004000
004000
004000
004000
ENDCHAR
STARTCHAR 2013
ENCODING 8211
SWIDTH 514 0
DWIDTH 10 0
BBX 0 0 0 0
BITMAP
ENDCHAR
STARTCHAR 2014
ENCODING 8212
SWIDTH 977 0
DWIDTH 19 0
BBX 0 0 0 0
BITMAP
ENDCHAR
STARTCHAR 2018
ENCODING 8216
SWIDTH 257 0
DWIDTH 5 0
BBX 0 0 0 0
BITMAP
ENDCHAR
STARTCHAR 2019
ENCODING 8217
SWIDTH 257 0
DWIDTH 5 0
BBX 0 0 0 0
BITMAP
ENDCHAR
STARTCHAR 201A
ENCODING 8218
SWIDTH 257 0
DWIDTH 5 0
BBX 0 0 0 0
BITMAP
ENDCHAR
STARTCHAR 201C
ENCODING 8220
SWIDTH 411 0
DWIDTH 8 0
BBX 0 0 0 0
BITMAP
ENDCHAR
STARTCHAR 201D
ENCODING 8221
SWIDTH 411 0
DWIDTH 8 0
BBX 0 0 0 0
BITMAP
ENDCHAR
STARTCHAR 201E
ENCODING 8222
SWIDTH 411 0
DWIDTH 8 0
BBX 0 0 0 0
BITMAP
ENDCHAR
STARTCHAR 2020
ENCODING 8224
SWIDTH 462 0
DWIDTH 9 0
BBX 0 0 0 0
BITMAP
ENDCHAR
STARTCHAR 2021
ENCODING 8225
SWIDTH 462 0
DWIDTH 9 0
BBX 0 0 0 0
BITMAP
ENDCHAR
STARTCHAR 2022
ENCODING 8226
SWIDTH 514 0
DWIDTH 10 0
BBX 0 0 0 0
BITMAP
ENDCHAR
STARTCHAR 2026
ENCODING 8230
SWIDTH 977 0
DWIDTH 19 0
BBX 0 0 0 0
BITMAP
ENDCHAR
STARTCHAR 2039
ENCODING 8249
SWIDTH 308 0
DWIDTH 6 0
BBX 0 0 0 0
BITMAP
ENDCHAR
STARTCHAR 203A
ENCODING 8250
SWIDTH 308 0
DWIDTH 6 0
BBX 0 0 0 0
BITMAP
ENDCHAR
STARTCHAR 2044
ENCODING 8260
SWIDTH 154 0
DWIDTH 3 0
BBX 0 0 0 0
BITMAP
ENDCHAR
STARTCHAR 20A3
ENCODING 8355
SWIDTH 462 0
DWIDTH 9 0
BBX 0 0 0 0
BITMAP
ENDCHAR
STARTCHAR 20A4
ENCODING 8356
SWIDTH 462 0
DWIDTH 9 0
BBX 0 0 0 0
BITMAP
ENDCHAR
STARTCHAR 20A7
ENCODING 8359
SWIDTH 977 0
DWIDTH 19 0
BBX 0 0 0 0
BITMAP
ENDCHAR
STARTCHAR 20AC
ENCODING 8364
SWIDTH 462 0
DWIDTH 9 0
BBX 0 0 0 0
BITMAP
ENDCHAR
STARTCHAR 2116
ENCODING 8470
SWIDTH 1080 0
DWIDTH 21 0
BBX 0 0 0 0
BITMAP
ENDCHAR
STARTCHAR 2122
ENCODING 8482
SWIDTH 720 0
DWIDTH 14 0
BBX 0 0 0 0
BITMAP
ENDCHAR
STARTCHAR 2202
ENCODING 8706
SWIDTH 462 0
DWIDTH 9 0
BBX 0 0 0 0
BITMAP
ENDCHAR
STARTCHAR 2206
ENCODING 8710
SWIDTH 514 0
DWIDTH 10 0
BBX 0 0 0 0
BITMAP
ENDCHAR
STARTCHAR 220F
ENCODING 8719
SWIDTH 720 0
DWIDTH 14 0
BBX 0 0 0 0
BITMAP
ENDCHAR
STARTCHAR 2211
ENCODING 8721
SWIDTH 565 0
DWIDTH 11 0
BBX 0 0 0 0
BITMAP
ENDCHAR
STARTCHAR 2212
ENCODING 8722
SWIDTH 462 0
DWIDTH 9 0
BBX 0 0 0 0
BITMAP
ENDCHAR
STARTCHAR 2215
ENCODING 8725
SWIDTH 154 0
DWIDTH 3 0
BBX 0 0 0 0
BITMAP
ENDCHAR
STARTCHAR 2219
ENCODING 8729
SWIDTH 257 0
DWIDTH 5 0
BBX 0 0 0 0
BITMAP
ENDCHAR
STARTCHAR 221A
ENCODING 8730
SWIDTH 462 0
DWIDTH 9 0
BBX 0 0 0 0
BITMAP
ENDCHAR
STARTCHAR 221E
ENCODING 8734
SWIDTH 462 0
DWIDTH 9 0
BBX 0 0 0 0
BITMAP
ENDCHAR
STARTCHAR 222B
ENCODING 8747
SWIDTH 308 0
DWIDTH 6 0
BBX 0 0 0 0
BITMAP
ENDCHAR
STARTCHAR 2248
ENCODING 8776
SWIDTH 462 0
DWIDTH 9 0
BBX 0 0 0 0
BITMAP
ENDCHAR
STARTCHAR 2264
ENCODING 8804
SWIDTH 462 0
DWIDTH 9 0
BBX 0 0 0 0
BITMAP
ENDCHAR
STARTCHAR 2265
ENCODING 8805
SWIDTH 462 0
DWIDTH 9 0
BBX 0 0 0 0
BITMAP
ENDCHAR
STARTCHAR F001
ENCODING 61441
SWIDTH 514 0
DWIDTH 10 0
BBX 0 0 0 0
BITMAP
ENDCHAR
STARTCHAR F002
ENCODING 61442
SWIDTH 514 0
DWIDTH 10 0
BBX 0 0 0 0
BITMAP
ENDCHAR
STARTCHAR FB01
ENCODING 64257
SWIDTH 514 0
DWIDTH 10 0
BBX 0 0 0 0
BITMAP
ENDCHAR
STARTCHAR FB02
ENCODING 64258
SWIDTH 514 0
DWIDTH 10 0
BBX 0 0 0 0
BITMAP
ENDCHAR
ENDFONT
